# xmcd
# 
# Track frame offsets:
#     150
#     18227
#     43422
#     60998
#     135552
#     151884
#     194248
#     221915
#     283273
#     317417
# 
# Disc length: 4678
# 
# Revision: 4
# Processed by: cddbd v1.5.2PL0 Copyright (c) Steve Scherf et al.
# Submitted via: fre:ac v1.0.17
# 
DISCID=9612440a
DTITLE=Popa Chubby - Ten Years With Popa Chubby Best Of [CD 2 Live)
DYEAR=2005
DGENRE=Blues Rock
TTITLE0=Caffeine And Nicotine
TTITLE1=Stoop Down Baby
TTITLE2=What´s So Great About Rock And Roll
TTITLE3=New York City Blues
TTITLE4=Walk On The Wild Side
TTITLE5=Arlita
TTITLE6=Hey Joe
TTITLE7=Sweet Goddess Of Love And Beer
TTITLE8=Life Is A Beatdown
TTITLE9=Hallelujah
EXTD=YEAR: 2005
EXTT0=
EXTT1=
EXTT2=
EXTT3=
EXTT4=
EXTT5=
EXTT6=
EXTT7=
EXTT8=
EXTT9=
PLAYORDER=
